<svg xmlns="http://www.w3.org/2000/svg" width="1600" height="1200" viewBox="0 0 1600 1200">
<defs><linearGradient id="wall" x1="0" y1="0" x2="0" y2="1"><stop offset="0" stop-color="#efe6d2"/><stop offset="1" stop-color="#e4d8bd"/></linearGradient>
<linearGradient id="floor" x1="0" y1="0" x2="0" y2="1"><stop offset="0" stop-color="#b98f5e"/><stop offset="1" stop-color="#8c6639"/></linearGradient>
<linearGradient id="win" x1="0" y1="0" x2="1" y2="1"><stop offset="0" stop-color="#cfe6f7"/><stop offset="1" stop-color="#9cc7e8"/></linearGradient></defs>
<rect width="1600" height="1200" fill="url(#wall)"/>
<rect y="0" width="1600" height="90" fill="#f7f3ea"/>
<rect y="940" width="1600" height="260" fill="url(#floor)"/>
<line x1="0" y1="940" x2="-80" y2="1200" stroke="#7a5a33" stroke-width="2" opacity=".5"/><line x1="140" y1="940" x2="60" y2="1200" stroke="#7a5a33" stroke-width="2" opacity=".5"/><line x1="280" y1="940" x2="200" y2="1200" stroke="#7a5a33" stroke-width="2" opacity=".5"/><line x1="420" y1="940" x2="340" y2="1200" stroke="#7a5a33" stroke-width="2" opacity=".5"/><line x1="560" y1="940" x2="480" y2="1200" stroke="#7a5a33" stroke-width="2" opacity=".5"/><line x1="700" y1="940" x2="620" y2="1200" stroke="#7a5a33" stroke-width="2" opacity=".5"/><line x1="840" y1="940" x2="760" y2="1200" stroke="#7a5a33" stroke-width="2" opacity=".5"/><line x1="980" y1="940" x2="900" y2="1200" stroke="#7a5a33" stroke-width="2" opacity=".5"/><line x1="1120" y1="940" x2="1040" y2="1200" stroke="#7a5a33" stroke-width="2" opacity=".5"/><line x1="1260" y1="940" x2="1180" y2="1200" stroke="#7a5a33" stroke-width="2" opacity=".5"/><line x1="1400" y1="940" x2="1320" y2="1200" stroke="#7a5a33" stroke-width="2" opacity=".5"/><line x1="1540" y1="940" x2="1460" y2="1200" stroke="#7a5a33" stroke-width="2" opacity=".5"/>

<rect x="120" y="150" width="144" height="300" fill="#d9cfbf" stroke="#a89c88" stroke-width="3"/><rect x="134" y="164" width="116" height="272" fill="none" stroke="#b8ab95" stroke-width="3"/><circle cx="242" cy="424" r="5" fill="#8a7a60"/><rect x="270" y="150" width="144" height="300" fill="#d9cfbf" stroke="#a89c88" stroke-width="3"/><rect x="284" y="164" width="116" height="272" fill="none" stroke="#b8ab95" stroke-width="3"/><circle cx="292" cy="424" r="5" fill="#8a7a60"/><rect x="420" y="150" width="144" height="300" fill="#d9cfbf" stroke="#a89c88" stroke-width="3"/><rect x="434" y="164" width="116" height="272" fill="none" stroke="#b8ab95" stroke-width="3"/><circle cx="542" cy="424" r="5" fill="#8a7a60"/><rect x="570" y="150" width="144" height="300" fill="#d9cfbf" stroke="#a89c88" stroke-width="3"/><rect x="584" y="164" width="116" height="272" fill="none" stroke="#b8ab95" stroke-width="3"/><circle cx="592" cy="424" r="5" fill="#8a7a60"/><rect x="1030" y="150" width="144" height="300" fill="#d9cfbf" stroke="#a89c88" stroke-width="3"/><rect x="1044" y="164" width="116" height="272" fill="none" stroke="#b8ab95" stroke-width="3"/><circle cx="1152" cy="424" r="5" fill="#8a7a60"/><rect x="1180" y="150" width="144" height="300" fill="#d9cfbf" stroke="#a89c88" stroke-width="3"/><rect x="1194" y="164" width="116" height="272" fill="none" stroke="#b8ab95" stroke-width="3"/><circle cx="1202" cy="424" r="5" fill="#8a7a60"/><rect x="1330" y="150" width="144" height="300" fill="#d9cfbf" stroke="#a89c88" stroke-width="3"/><rect x="1344" y="164" width="116" height="272" fill="none" stroke="#b8ab95" stroke-width="3"/><circle cx="1452" cy="424" r="5" fill="#8a7a60"/>
<rect x="720" y="170" width="260" height="340" fill="#fff"/><rect x="734" y="184" width="232" height="312" fill="url(#win)"/><line x1="850" y1="184" x2="850" y2="496" stroke="#fff" stroke-width="10"/>
<rect x="120" y="450" width="1360" height="210" fill="#e9e1cf"/><line x1="120" y1="450" x2="1480" y2="450" stroke="#d3c7ad" stroke-width="2"/><line x1="120" y1="480" x2="1480" y2="480" stroke="#d3c7ad" stroke-width="2"/><line x1="120" y1="510" x2="1480" y2="510" stroke="#d3c7ad" stroke-width="2"/><line x1="120" y1="540" x2="1480" y2="540" stroke="#d3c7ad" stroke-width="2"/><line x1="120" y1="570" x2="1480" y2="570" stroke="#d3c7ad" stroke-width="2"/><line x1="120" y1="600" x2="1480" y2="600" stroke="#d3c7ad" stroke-width="2"/><line x1="120" y1="630" x2="1480" y2="630" stroke="#d3c7ad" stroke-width="2"/>
<rect x="110" y="640" width="1380" height="22" fill="#7d6b55"/><rect x="110" y="662" width="1380" height="6" fill="#5e4f3c"/>
<rect x="120" y="668" width="146" height="272" fill="#d9cfbf" stroke="#a89c88" stroke-width="3"/><rect x="134" y="718" width="118" height="208" fill="none" stroke="#b8ab95" stroke-width="3"/><rect x="134" y="678" width="118" height="30" fill="none" stroke="#b8ab95" stroke-width="3"/><rect x="172" y="690" width="36" height="6" rx="3" fill="#8a7a60"/><rect x="272" y="668" width="146" height="272" fill="#d9cfbf" stroke="#a89c88" stroke-width="3"/><rect x="286" y="718" width="118" height="208" fill="none" stroke="#b8ab95" stroke-width="3"/><rect x="286" y="678" width="118" height="30" fill="none" stroke="#b8ab95" stroke-width="3"/><rect x="324" y="690" width="36" height="6" rx="3" fill="#8a7a60"/><rect x="424" y="668" width="146" height="272" fill="#d9cfbf" stroke="#a89c88" stroke-width="3"/><rect x="438" y="718" width="118" height="208" fill="none" stroke="#b8ab95" stroke-width="3"/><rect x="438" y="678" width="118" height="30" fill="none" stroke="#b8ab95" stroke-width="3"/><rect x="476" y="690" width="36" height="6" rx="3" fill="#8a7a60"/><rect x="576" y="668" width="146" height="272" fill="#d9cfbf" stroke="#a89c88" stroke-width="3"/><rect x="590" y="718" width="118" height="208" fill="none" stroke="#b8ab95" stroke-width="3"/><rect x="590" y="678" width="118" height="30" fill="none" stroke="#b8ab95" stroke-width="3"/><rect x="628" y="690" width="36" height="6" rx="3" fill="#8a7a60"/><rect x="728" y="668" width="146" height="272" fill="#d9cfbf" stroke="#a89c88" stroke-width="3"/><rect x="742" y="718" width="118" height="208" fill="none" stroke="#b8ab95" stroke-width="3"/><rect x="742" y="678" width="118" height="30" fill="none" stroke="#b8ab95" stroke-width="3"/><rect x="780" y="690" width="36" height="6" rx="3" fill="#8a7a60"/><rect x="880" y="668" width="146" height="272" fill="#d9cfbf" stroke="#a89c88" stroke-width="3"/><rect x="894" y="718" width="118" height="208" fill="none" stroke="#b8ab95" stroke-width="3"/><rect x="894" y="678" width="118" height="30" fill="none" stroke="#b8ab95" stroke-width="3"/><rect x="932" y="690" width="36" height="6" rx="3" fill="#8a7a60"/><rect x="1032" y="668" width="146" height="272" fill="#d9cfbf" stroke="#a89c88" stroke-width="3"/><rect x="1046" y="718" width="118" height="208" fill="none" stroke="#b8ab95" stroke-width="3"/><rect x="1046" y="678" width="118" height="30" fill="none" stroke="#b8ab95" stroke-width="3"/><rect x="1084" y="690" width="36" height="6" rx="3" fill="#8a7a60"/><rect x="1184" y="668" width="146" height="272" fill="#d9cfbf" stroke="#a89c88" stroke-width="3"/><rect x="1198" y="718" width="118" height="208" fill="none" stroke="#b8ab95" stroke-width="3"/><rect x="1198" y="678" width="118" height="30" fill="none" stroke="#b8ab95" stroke-width="3"/><rect x="1236" y="690" width="36" height="6" rx="3" fill="#8a7a60"/><rect x="1336" y="668" width="146" height="272" fill="#d9cfbf" stroke="#a89c88" stroke-width="3"/><rect x="1350" y="718" width="118" height="208" fill="none" stroke="#b8ab95" stroke-width="3"/><rect x="1350" y="678" width="118" height="30" fill="none" stroke="#b8ab95" stroke-width="3"/><rect x="1388" y="690" width="36" height="6" rx="3" fill="#8a7a60"/>
<rect x="760" y="646" width="200" height="16" rx="6" fill="#9aa3ab"/><path d="M860 646 v-70 q0 -24 30 -24 h20" fill="none" stroke="#9aa3ab" stroke-width="10"/>
<rect x="1200" y="560" width="200" height="80" fill="#2b2b2b"/><rect x="1215" y="575" width="170" height="10" fill="#555"/>
<rect x="1500" y="140" width="100" height="800" fill="#c9ccd0"/><rect x="1515" y="160" width="8" height="220" fill="#9aa0a6"/>
<g><rect x="40" y="1100" width="560" height="60" rx="12" fill="#000" opacity=".55"/><text x="64" y="1140" font-family="Helvetica,Arial" font-size="28" fill="#fff">Main wall — sink and window (hero)</text></g>
<text x="1560" y="60" text-anchor="end" font-family="Helvetica,Arial" font-size="24" fill="#8a7a60">SAMPLE PHOTO — replace with a real kitchen</text>
</svg>